<?xml version="1.0" encoding="utf-8"?>
<!-- Generator: Adobe Illustrator 24.3.0, SVG Export Plug-In . SVG Version: 6.00 Build 0)  -->
<svg version="1.1" id="Layer_1" xmlns="http://www.w3.org/2000/svg" xmlns:xlink="http://www.w3.org/1999/xlink" x="0px" y="0px"
	 viewBox="0 0 576.96 329.23" style="enable-background:new 0 0 576.96 329.23;" xml:space="preserve">
<style type="text/css">
	.st0{fill:#FAA21B;}
	.st1{fill:#00B1A8;}
	.st2{fill:#EE408A;}
	.st3{fill:#125F68;}
	.st4{fill:#EF4854;}
</style>
<g>
	<g>
		<path class="st0" d="M489.3,281.38c-1.11,0-2.21-0.53-2.88-1.53c-1.07-1.59-0.65-3.74,0.93-4.81
			c37.18-25.12,59.38-66.87,59.38-111.68c0-74.26-60.42-134.68-134.68-134.68c-30.11,0-58.59,9.72-82.34,28.1
			c-1.51,1.17-3.69,0.89-4.86-0.62c-1.17-1.51-0.89-3.69,0.62-4.86c24.98-19.33,54.92-29.55,86.58-29.55
			c78.09,0,141.61,63.53,141.61,141.61c0,47.12-23.34,91.01-62.43,117.43C490.64,281.19,489.96,281.38,489.3,281.38z"/>
	</g>
	<g>
		<path class="st1" d="M414.04,288.1c-1.91,0-3.47-1.55-3.47-3.47c0-1.91,1.55-3.47,3.47-3.47c64.96,0,117.81-52.85,117.81-117.81
			S479,45.55,414.04,45.55c-1.91,0-3.47-1.55-3.47-3.47c0-1.91,1.55-3.47,3.47-3.47c68.78,0,124.74,55.96,124.74,124.74
			S482.83,288.1,414.04,288.1z"/>
	</g>
	<g>
		<path class="st2" d="M410.08,321.72c-46.72,0-90.82-20.48-121-56.2c-1.24-1.46-1.05-3.65,0.41-4.89c1.46-1.24,3.65-1.05,4.89,0.41
			c28.86,34.15,71.04,53.74,115.71,53.74c83.5,0,151.43-67.93,151.43-151.43S493.58,11.93,410.08,11.93
			c-43.71,0-85.29,18.89-114.07,51.83c-1.26,1.44-3.45,1.59-4.89,0.33c-1.44-1.26-1.59-3.45-0.33-4.89
			C320.89,24.76,364.37,5,410.08,5c42.3,0,82.07,16.47,111.98,46.38c29.91,29.91,46.38,69.68,46.38,111.98
			s-16.47,82.07-46.38,111.98C492.15,305.25,452.38,321.72,410.08,321.72z"/>
	</g>
	<g>
		<g>
			<path class="st3" d="M237.47,211.78v25.16h-2.73v-11.29h-15.67v11.29h-2.73v-25.16h2.73v11.29h15.67v-11.29H237.47z"/>
		</g>
		<g>
			<path class="st3" d="M261.88,211.42c7.12,0,12.55,5.57,12.55,12.94S269,237.3,261.88,237.3c-7.15,0-12.58-5.57-12.58-12.94
				S254.73,211.42,261.88,211.42z M261.88,234.68c5.5,0,9.71-4.46,9.71-10.32s-4.21-10.32-9.71-10.32c-5.54,0-9.74,4.46-9.74,10.32
				S256.34,234.68,261.88,234.68z"/>
		</g>
		<g>
			<path class="st3" d="M286.25,211.78h2.73v22.54h13.8v2.62h-16.54V211.78z"/>
		</g>
		<g>
			<path class="st3" d="M316.23,211.78v25.16h-2.73v-25.16H316.23z"/>
		</g>
		<g>
			<path class="st3" d="M329.75,211.78h9.49c7.51,0,11.72,5.32,11.72,12.58c0,7.3-4.24,12.58-11.72,12.58h-9.49V211.78z
				 M332.48,214.41v19.91h6.54c6.11,0,9.13-4.17,9.13-9.96c0-5.82-2.98-9.96-9.13-9.96H332.48z"/>
		</g>
		<g>
			<path class="st3" d="M373.6,211.78l10.93,25.16h-2.95l-2.37-5.46h-14.27l-2.34,5.46h-2.95l10.89-25.16H373.6z M366.05,228.86
				h12.04l-6.04-14.02L366.05,228.86z"/>
		</g>
		<g>
			<path class="st3" d="M403.33,225.01l8.52-13.23h3.31l-10.46,16.1v9.06h-2.73v-9.09l-10.46-16.07h3.34L403.33,225.01z"/>
		</g>
		<g>
			<path class="st3" d="M426.44,229.94c0.4,3.31,3.27,4.82,7.26,4.82c4.06,0,6.47-1.62,6.47-4.13c0-3.09-3.59-3.92-7.48-5.03
				c-4.06-1.19-8.7-2.62-8.7-7.55c0-4.03,3.41-6.61,8.88-6.61c5.32,0,9.42,2.44,9.42,7.23v0.4h-2.7v-0.18c0-3.27-2.8-4.85-6.76-4.85
				c-3.85,0-6,1.58-6,4.1c0,2.98,3.06,3.88,6.76,4.96c5.07,1.47,9.38,2.8,9.38,7.51c0,4.28-3.59,6.72-9.35,6.72
				c-5.39,0-9.35-2.26-9.89-6.61L426.44,229.94z"/>
		</g>
	</g>
	<g>
		<g>
			<path class="st4" d="M264.49,161.09c-5.61,9.74-10.04,24.79-8.41,28.93c0.44,1.18,0.74,1.33,2.8,1.33
				c5.02,0,10.77-2.21,17.12-6.49c7.67-5.17,15.94-12.99,25.38-23.76c9.45-10.77,12.99-13.58,15.05-12.1
				c0.74,0.59,0.74,0.89,0.15,2.36c-0.89,2.07-7.97,10.63-13.87,16.82c-2.07,2.21-4.43,4.87-5.17,5.61
				c-2.21,2.51-13.13,12.4-18,16.09c-9.3,7.38-18.01,10.04-23.17,7.23c-7.82-4.28-11.95-8.56-14.32-14.32
				c-1.48-3.84-1.77-11.95-0.59-15.94c1.62-6.05,4.72-12.99,8.41-18.89c4.72-7.97,7.08-11.07,11.81-15.94
				c7.82-8.12,15.05-12.25,21.55-12.25c3.69,0,5.46,0.89,9.3,4.58c3.25,3.1,3.39,3.25,3.1,5.02c-0.15,0.89-0.74,2.21-1.33,2.8
				c-1.03,1.18-1.18,1.18-1.92,0.44c-0.59-0.44-0.89-1.03-0.89-1.33c0-0.3-0.3-0.89-0.44-1.18c-0.44-0.59-0.74-0.59-1.77,0
				C284.86,132.31,270.84,149.88,264.49,161.09z M248.4,167.59c1.03-3.1,2.36-6.64,2.95-7.67c0.44-1.18,0.89-2.21,0.74-2.21
				c-0.59-0.74-5.61,12.1-5.61,14.46C246.49,172.75,247.37,170.68,248.4,167.59z M248.85,173.78c0.44-1.92,1.48-5.17,2.21-7.38
				c1.77-5.31,4.43-10.63,8.26-16.53c1.62-2.66,2.95-4.87,2.66-4.57c-0.89,0.44-6.79,9.89-9,14.02c-2.66,5.31-4.58,11.22-4.72,14.91
				l-0.3,2.95L248.85,173.78z M254.01,165.81c2.51-6.49,9.45-18.3,14.61-24.65c3.1-3.84,3.1-3.98,2.95-3.98
				c-0.59,0-6.64,7.97-10.04,12.84c-4.43,6.64-6.94,11.51-9,17.86c-1.77,5.31-2.21,8.12-0.59,3.69
				C252.39,170.09,253.42,167.44,254.01,165.81z M252.24,156.66c0,0.59,0.44,0.44,0.74-0.3c0.15-0.44,0-0.74-0.15-0.59
				C252.54,156.07,252.24,156.37,252.24,156.66z M258,167.73c-0.74,1.48-3.84,11.07-3.69,12.25c0,0.44,0.59-1.03,1.33-3.54
				c0.74-2.66,1.77-5.61,2.21-6.79C258.74,167.29,258.74,166.55,258,167.73z M256.67,162.12c-0.3,0.15-0.44,0.44-0.44,0.74
				c0,0.74,0.3,0.59,0.59-0.3C256.96,162.12,256.96,161.98,256.67,162.12z M258.15,159.17c-0.3,0.15-0.59,0.59-0.59,0.74
				c0,0.74,0.44,0.59,0.74-0.3C258.44,159.32,258.44,159.03,258.15,159.17z M259.03,165.52c-0.3,0.15-0.44,0.44-0.44,0.74
				c0,0.74,0.3,0.59,0.59-0.3C259.47,165.52,259.33,165.37,259.03,165.52z"/>
			<path class="st4" d="M299.76,174.67c-1.03-11.51,14.32-39.7,26.56-48.7c4.87-3.54,10.63-5.46,14.76-4.87
				c1.77,0.3,2.8,0.89,5.17,3.25c1.62,1.48,3.54,2.95,4.13,3.1c0.59,0.15,1.03,0.44,1.03,0.74c0,1.18,0.89,0.3,2.36-1.92
				c1.48-2.51,2.95-3.25,4.87-2.66c1.03,0.3,1.18,1.18,0.44,2.8c-0.59,1.03-0.59,1.03,0.44,0.15c0.89-0.89,1.03-0.89,1.03-0.15
				c0,0.44,0.3,0.59,0.74,0.44c0.44-0.15,0.89,0.15,1.03,0.59c0.15,0.44,0.44,0.59,0.59,0.44c0.3-0.15,1.18,0.44,2.21,1.33
				c1.48,1.33,1.62,1.77,1.62,3.84c0,3.1-1.62,8.85-5.9,19.63c-1.92,5.02-4.28,11.22-5.02,13.87c-1.48,4.87-2.66,10.04-2.21,10.33
				c0.44,0.59,6.94-4.87,11.81-9.89c5.02-5.17,9.59-11.07,18.74-23.61c1.62-2.21,3.1-4.13,3.25-3.98c0.15,0.15-0.44,1.48-1.48,2.8
				c-0.89,1.33-1.77,2.51-1.77,2.8c0,0.15,1.03-1.03,2.07-2.51c3.39-4.72,2.66-2.21-1.03,3.98c-14.76,24.2-22.73,34.98-28.48,38.81
				c-2.21,1.48-7.23,0.74-7.97-1.18c-0.15-0.44-1.18-1.18-2.36-1.77c-3.98-1.92-6.79-7.23-7.53-13.87l-0.3-3.69l-2.36,3.54
				c-3.39,4.87-11.07,14.61-13.72,17.56c-5.61,5.76-7.97,6.35-11.66,2.95c-1.33-1.18-2.8-2.21-3.39-2.21c-1.33,0-4.72-3.54-6.2-6.64
				C300.65,178.51,299.91,176.14,299.76,174.67z M307.58,168.47c0.89-2.95,1.77-5.76,1.92-6.2c0.15-0.59,0-0.3-0.59,0.74
				c-1.03,1.77-2.66,6.79-3.25,9.59C305.08,175.55,305.81,173.93,307.58,168.47z M318.36,148.69c-6.2,9.59-10.92,21.25-10.92,26.56
				c0,1.48,0.3,0.74,1.33-3.39c0.74-2.95,2.07-7.08,2.95-9.15c1.77-4.43,6.2-12.84,8.26-15.94c0.89-1.18,1.33-2.21,1.18-2.21
				C321.01,144.56,319.69,146.48,318.36,148.69z M316.14,157.55c-2.8,5.61-5.9,14.02-5.76,16.23c0,0.59,0.74-1.18,1.62-3.84
				c0.89-2.66,2.36-6.64,3.39-8.85c2.51-6.2,6.05-12.1,11.22-19.19l2.07-2.8l-1.92,2.07C323.82,144.41,319.54,151.06,316.14,157.55z
				 M316.14,172.46l-0.74,1.33c-0.3,0.89-0.74,2.51-0.89,3.69l-0.3,2.21l0.59-2.07c0.44-1.03,0.74-2.66,1.03-3.54L316.14,172.46z
				 M322.64,163.16c-2.8,5.9-5.76,13.87-5.17,13.87c0.3,0,1.48-1.03,2.8-2.21c6.2-5.61,20.96-25.24,25.09-33.35
				c2.51-5.02,2.8-6.94,1.33-6.35c-0.44,0.15-2.21,1.33-3.99,2.51C335.77,142.2,327.95,152.24,322.64,163.16z M334.3,165.37
				c-0.44,0.3-0.74,0.74-0.74,0.74c0,0.44,0.3,0.15,1.03-0.59C335.18,164.78,335.03,164.78,334.3,165.37z M335.77,163.45
				c-0.44,0.3-0.89,0.74-0.89,0.74c0,0.44,0.44,0.15,1.03-0.59C336.51,162.86,336.51,162.71,335.77,163.45z M348.32,151.35
				c-0.89,0.59-2.51,5.46-2.95,8.41c-0.15,1.18,0.44-0.15,1.33-2.95c0.89-2.66,1.77-5.17,2.07-5.46
				C349.05,150.76,349.05,150.76,348.32,151.35z M346.25,165.08c-0.15,1.77,0.15,1.03,1.18-2.8c0.74-2.95,2.66-8.41,4.13-12.1
				c1.92-4.87,2.36-6.35,1.62-5.46C350.83,147.51,346.99,159.32,346.25,165.08z M349.94,160.5c0,0.3,0.15,0,2.36-5.76
				c0.89-2.21,2.66-6.35,3.84-9c2.66-6.05,3.98-9.3,3.69-9.3C358.94,136.45,349.79,158.73,349.94,160.5z M353.78,163.75
				c-1.62,5.76-1.03,4.72,1.62-2.95c1.48-3.98,3.84-10.18,5.31-13.72c2.36-5.76,4.28-11.51,2.8-8.56
				C362.19,141.32,354.66,160.8,353.78,163.75z M365.88,170.09c0,0.3,0.44,0.15,1.03-0.74c0.59-0.74,0.59-0.74-0.15-0.15
				C366.17,169.5,365.88,169.95,365.88,170.09z M368.39,167.29c0.15,0,0.59-0.44,1.03-0.89c0.59-0.59,0.89-1.03,0.74-1.03
				s-0.74,0.44-1.18,1.03C368.54,166.85,368.24,167.29,368.39,167.29z M371.63,164.34c0,0.15-0.3,0.59-0.59,1.03
				c-0.44,0.44-0.44,0.59,0,0.3c0.3-0.15,0.89-0.74,1.03-1.18c0.44-0.74,0.44-0.89-0.15-0.89c-0.44,0.15-0.89,0.3-1.03,0.59
				c-0.3,0.15-0.15,0.3,0.15,0C371.34,164.04,371.63,164.04,371.63,164.34z M373.7,162.12c1.03-0.89,2.36-3.39,1.92-3.69
				c-0.3-0.15-0.74,0-1.18,0.59c-0.44,0.59-0.44,0.74,0,0.3c0.59-0.3,0.74-0.15,0.59,0.3c-0.15,0.44-0.59,0.74-0.89,0.74
				c-0.3,0-0.59,0.15-0.89,0.44c-0.15,0.15-0.15,0.3,0.3,0c0.44-0.3,0.59-0.15,0.44,0.3c-0.15,0.3-0.44,0.74-0.74,0.74
				c-0.3,0-0.89,0.15-1.18,0.44C371.34,163.16,372.82,162.86,373.7,162.12z M377.24,156.07c0.44,0,0.74-0.15,0.74-0.15
				c0-0.44-1.03-0.59-1.18-0.3C376.65,155.93,376.8,156.07,377.24,156.07z M377.98,155.04c0,0.44,0.3,0.15,1.03-0.59
				c0.59-0.89,0.59-0.89-0.15-0.3C378.28,154.6,377.98,154.89,377.98,155.04z M380.64,150.47c0.44,0.74,1.33-0.15,1.48-1.62
				c0.15-0.59,0.15-0.89-0.15-0.74c-0.15,0.15-0.3,0.74-0.44,1.18c0,0.44-0.3,0.89-0.59,0.74
				C380.49,150.02,380.49,150.17,380.64,150.47z"/>
			<path class="st4" d="M398.94,121.98c-0.3,0.89-0.15,1.18,0.3,0.89c0.59-0.15,0.59,0.15,0.3,1.03c-0.74,1.77-0.59,2.07,0.3,0.74
				c0.74-1.03,0.89-1.03,1.33-0.44c0.3,0.44,1.03,1.03,1.62,1.33c0.59,0.3,1.03,0.89,1.03,1.18c0,0.44,0.3,0.74,0.44,0.74
				c1.03,0,0.59,3.25-0.89,6.79c-0.74,1.77-1.33,3.39-1.18,3.39c0,0,1.03-0.74,1.92-1.77c4.57-4.13,8.41-5.76,12.4-5.31
				c4.72,0.59,18.3,9,17.71,11.07c-0.15,0.3-1.18,0.89-2.36,1.18c-2.07,0.74-2.36,0.59-5.31-0.59c-4.28-1.62-5.76-1.92-7.97-1.18
				c-2.95,0.74-6.05,2.95-10.77,7.82c-7.53,7.53-14.76,17.41-21.55,28.93c-2.95,5.17-7.53,14.02-7.53,14.76
				c0,0.3-0.44,0.89-1.03,1.33c-0.59,0.59-0.89,0.74-0.89,0.3c0-0.44-0.15-0.44-0.74,0c-0.44,0.3-0.74,0.3-1.33-0.44
				c-0.44-0.44-0.89-1.18-0.89-1.62c0-0.74-0.89-1.33-2.66-1.33c-1.62,0-3.54-3.1-3.54-5.76c0-7.53,4.13-19.78,13.28-40.44
				c3.84-8.41,12.25-22.73,14.17-24.2C396.72,119.18,399.23,120.21,398.94,121.98z M394.95,130.25c1.18-2.07,2.07-3.98,1.92-4.13
				c-0.59-0.59-12.54,23.17-16.68,33.21c-3.84,9.3-7.53,20.07-6.79,19.63c0.3-0.15,1.03-1.92,1.62-3.98
				C378.87,163.01,387.72,142.94,394.95,130.25z M383.29,158.43c2.07-5.02,6.2-13.87,9.3-19.78c2.95-5.9,5.17-10.63,4.87-10.63
				c-0.59,0.3-8.71,15.79-12.4,24.2c-4.28,9.74-8.56,20.37-7.82,19.92c0.15,0,0.74-1.18,1.33-2.51
				C379.16,168.32,381.37,163.31,383.29,158.43z M398.79,130.1c-1.03,1.48-9,17.12-12.1,24.06c-2.8,6.35-3.69,9-1.18,3.98
				c0.74-1.62,4.13-8.71,7.67-15.94C396.58,134.97,399.23,129.66,398.79,130.1z M392.74,159.62l-1.18,1.48
				c-0.74,0.74-1.18,1.62-1.18,1.92c0,0.44,0,0.44,1.33-1.77L392.74,159.62z M397.46,153.12c-1.62,1.92-5.46,7.08-4.13,5.76
				c0.3-0.44,1.77-2.21,3.25-4.13C397.9,152.97,398.35,152.24,397.46,153.12z M397.02,142.64c-0.3,0.44-0.3,0.74-0.15,0.74
				c0.15,0,1.18-2.07,2.51-4.58c1.18-2.51,2.07-4.72,1.92-4.87c-0.15-0.15-1.03,1.62-2.07,3.84S397.17,142.05,397.02,142.64z
				 M400.27,149.58c-0.44,0.44-0.74,0.74-0.74,0.89c0,0.44,0.3,0.15,1.03-0.59C401.15,148.99,401.15,148.99,400.27,149.58z
				 M401.59,148.25c0,0,0.74-0.74,1.62-1.62l1.33-1.48l-1.62,1.33C401.59,147.81,401.15,148.25,401.59,148.25z"/>
			<path class="st4" d="M495.9,152.24c-12.69,19.78-26.56,34.83-36.9,39.85c-5.61,2.66-10.48,3.25-15.35,1.77
				c-1.33-0.3-3.25-1.33-4.13-2.07c-1.03-0.74-2.66-1.77-3.84-2.36c-2.36-1.18-5.76-4.58-8.12-7.97
				c-6.35-9.45-3.98-22.43,6.79-38.81c6.05-9.15,15.05-17.12,22.28-19.92c5.9-2.21,11.95-1.62,14.17,1.33
				c0.59,0.59,1.92,1.77,2.95,2.66c2.95,2.07,4.13,4.87,3.84,9.3c-0.44,4.72-2.21,10.18-4.87,14.17
				c-4.87,7.23-13.43,15.05-19.63,17.86c-2.8,1.33-7.82,1.77-10.04,0.89c-0.89-0.3-1.18-0.15-1.77,1.92
				c-2.07,6.49-2.21,9.89-0.59,13.43c1.03,1.92,1.77,2.21,5.31,2.21c5.31,0,11.81-2.66,18.45-7.67c6.35-4.72,18-17.41,25.68-27.6
				c3.54-4.72,6.35-7.53,6.79-6.35c0,0.3,0.44,0.59,0.89,0.59C499,145.45,498.11,148.69,495.9,152.24z M432.29,159.91
				c-1.03,1.62-3.54,10.92-2.8,10.18c0.15-0.15,0.89-2.21,1.62-4.58C432.73,159.76,432.88,159.03,432.29,159.91z M432.44,168.32
				c0.74-2.66,1.33-5.46,1.62-6.2c0.44-2.21-0.59-0.89-1.48,1.92c-0.44,1.33-1.03,3.98-1.03,5.76l-0.3,3.39L432.44,168.32z
				 M436.13,163.75c0-0.44-0.15-0.44-0.44-0.15c-0.44,0.44-2.07,6.35-1.92,7.53C433.77,171.86,436.13,164.78,436.13,163.75z
				 M439.52,168.91l-0.74,1.48c-0.29,0.74-0.74,2.21-0.88,3.25l-0.3,1.92l0.59-1.92c0.44-1.03,0.74-2.51,1.03-3.39L439.52,168.91z
				 M444.39,163.45c0,0.74,2.36,0.3,5.02-1.03c9.74-4.72,18.15-15.35,20.22-25.97c1.03-4.72,0.89-5.31-1.18-4.28
				c-4.13,2.07-10.33,8.85-16.53,18C449.41,153.86,444.39,162.71,444.39,163.45z M449.12,141.46c1.62-2.07,2.8-3.84,2.8-3.84
				c-0.44,0-6.2,6.94-6.2,7.53C445.72,145.74,445.57,145.89,449.12,141.46z M467.71,149.73c-0.88,1.18-1.03,1.48-0.29,0.89
				c0.44-0.44,1.03-0.74,1.18-0.59c0.3,0.3,1.92-1.77,3.25-4.43c1.18-2.36,1.03-2.8-0.3-0.74c-0.3,0.74-0.59,1.03-0.44,0.59
				c0.74-2.8,0.59-2.8-0.74-0.3C469.63,146.78,468.3,148.84,467.71,149.73z M468.45,149.58c0-0.59,2.07-3.69,2.36-3.54
				c0.15,0.15-0.3,1.03-0.89,2.07C469.04,149.58,468.45,150.17,468.45,149.58z M472.43,141.61c0.15-0.44,0.44-1.03,0.44-1.48
				c-0.15-0.44-0.3-0.44-0.44,0.15C471.84,141.61,471.84,142.5,472.43,141.61z M492.06,154.01c-0.29,0.3-0.89,0.44-0.89,0.3
				c-0.15-0.15-0.59,0.15-1.03,0.59c-0.59,0.89-0.59,0.89,0.15,0.3c0.44-0.3,0.88-0.44,1.03-0.3c0.15,0.15,0.59-0.15,0.89-0.59
				C492.8,153.42,492.8,153.42,492.06,154.01z M494.13,149.88c0.59-0.74,0.59-0.74-0.15-0.15c-0.44,0.3-0.89,0.74-0.89,0.89
				C493.09,150.91,493.54,150.76,494.13,149.88z M494.42,150.61c-0.44,0.44-0.74,0.74-0.74,0.89c0,0.44,0.29,0.15,1.03-0.59
				C495.31,150.02,495.16,150.02,494.42,150.61z M495.75,147.07c-0.3,0.3-0.15,0.3,0.15,0.15c0.3-0.3,0.59-0.15,0.59,0.15
				c0,0.74,0.3,0.59,0.74-0.15C497.37,146.48,496.34,146.33,495.75,147.07z"/>
			<path class="st4" d="M108.2,147.66c2.51-4.13,6.35-10.63,8.56-14.32c9.15-15.05,15.5-28.04,20.22-41.62
				c3.1-9,4.58-15.05,4.72-18.6c0.15-2.66,0.15-2.95-1.03-3.1c-0.89-0.3-1.03-0.59-1.03-1.62c0-0.74-0.15-1.18-0.3-1.03
				c-0.3,0.15-0.44,0-0.44-0.3c0-0.3-0.44-0.44-0.74-0.3c-0.74,0.3-1.77-1.03-1.77-2.36c0-1.33,1.92-2.51,4.43-2.8
				c3.1-0.3,4.28,0.3,6.35,2.95c0.74,1.33,2.51,3.25,3.69,4.58c1.18,1.18,2.95,3.54,3.84,5.17c1.33,2.8,1.48,3.39,1.48,7.38
				c0,7.67-2.66,17.86-8.56,32.76c-4.57,11.51-15.94,32.47-23.47,43.54c-15.64,22.88-27.45,36.9-33.06,39.55
				c-2.95,1.33-6.94,1.48-9.45,0.44c-0.74-0.3-2.36-1.48-3.54-2.51c-1.18-1.18-2.66-2.07-3.69-2.36c-1.33-0.15-2.51-1.03-4.58-3.1
				c-2.95-3.1-4.72-6.35-5.76-10.63c-0.89-3.25-0.74-12.25,0.15-17.71c0.44-2.21,0.44-3.98,0.3-3.98c-0.3,0-0.44,0.15-0.44,0.44
				c0,0.59-10.92,18-13.87,22.28c-5.76,8.26-11.66,14.61-14.61,15.94c-1.03,0.59-2.51,0.89-3.39,0.89c-1.77,0-4.87-1.77-5.61-3.25
				c-0.44-0.59-1.33-1.03-2.8-1.18c-2.66-0.3-6.2-3.1-7.82-6.2c-0.89-1.77-1.03-2.8-1.03-6.94c0-12.69,6.35-30.55,23.17-65.08
				c8.26-16.97,14.46-30.99,14.46-32.62c0-1.48-8.41,4.87-14.32,10.77c-14.32,14.32-24.2,30.99-24.2,40.58
				c-0.15,2.95,0.89,5.46,2.66,7.08c0.89,0.74,1.62,1.48,1.62,1.62c0,0.15-0.74,0.3-1.48,0.3c-1.62,0-5.76-2.51-7.82-4.72
				c-3.84-4.13-4.43-10.77-1.77-18.6c3.98-12.4,17.86-30.7,35.71-47.52c7.08-6.64,9.45-7.97,12.69-7.67
				c2.51,0.3,3.69,1.18,5.46,3.84c0.59,1.03,2.07,2.51,3.25,3.39c3.1,2.21,5.17,5.76,5.46,9.15c0.59,7.82-4.28,20.81-19.63,53.13
				c-6.79,14.32-12.25,28.04-15.35,38.52c-2.36,8.26-2.21,8.56,2.07,3.98c8.71-9.15,21.25-28.19,31.88-48.55
				c7.38-13.87,8.71-16.82,10.33-20.81c1.48-3.98,2.51-5.31,3.39-4.13c0.15,0.3,0.44,0.3,0.74-0.3c0.3-0.59,0.59-0.59,1.62-0.15
				c0.89,0.44,1.18,1.03,1.18,2.21c0,0.89,0.15,1.33,0.44,1.03c0.74-0.74,1.18-0.44,1.18,0.74c0,0.89,0.3,1.18,0.89,0.89
				c0.44-0.15,1.03,0,1.33,0.59c0.44,0.44,1.18,0.89,1.77,1.03c0.59,0.15,1.33,0.59,1.77,1.03c0.3,0.44,1.03,1.33,1.48,1.92
				c0.59,0.59,1.03,1.62,1.03,2.07c0,0.59-1.77,6.2-3.84,12.69c-5.17,15.64-9.59,33.06-10.92,43.24c-0.74,5.9-0.89,12.99-0.15,12.99
				c1.03,0,10.33-9.89,14.76-15.94C102.3,157.55,103.04,156.37,108.2,147.66z M17.14,110.03c0.89-1.48,0.89-1.77,0.3-1.03
				c-2.8,3.54-7.97,14.91-7.82,17.56c0.15,1.03,0.15,1.03,0.3,0.15c0.15-0.59,0.74-2.51,1.33-4.13
				C12.12,119.47,14.63,114.31,17.14,110.03z M27.18,98.07c-1.33,0.74-8.26,10.63-11.22,15.79c-1.62,2.95-4.43,9.45-4.43,10.33
				c0,0.3,0.74-1.18,1.62-3.39c0.89-2.07,2.66-5.46,3.69-7.38c2.21-3.98,6.35-10.04,9.15-13.58C26.88,98.66,27.47,97.93,27.18,98.07
				z M21.27,178.95c0.15-1.18,0.89-4.43,1.48-7.23c1.03-5.76,3.54-13.58,7.67-23.61c1.48-3.84,2.66-7.08,2.66-7.08
				c-0.3-0.3-2.95,6.35-6.2,15.05c-3.39,9-5.61,17.56-5.9,21.84C20.68,181.01,20.68,181.01,21.27,178.95z M27.33,162.86
				c3.39-10.77,9.89-26.12,17.41-41.18c4.87-9.74,6.94-14.02,10.18-21.69c2.8-6.64,5.9-15.5,5.61-15.94c0,0-0.44,0.44-0.59,1.18
				c-2.07,5.31-3.25,8.26-6.79,16.09c-2.07,4.87-5.9,12.99-8.26,18.15c-12.4,25.24-18.89,41.91-21.25,53.57
				c-1.03,4.72-1.33,11.95-0.44,9.3c0.15-0.74,0.3-1.92,0.3-2.8C23.64,176.74,25.55,168.32,27.33,162.86z M29.98,163.01
				c3.39-10.33,8.56-22.43,16.82-39.26c4.72-10.04,10.18-22.43,9.89-22.73c-0.15-0.15-0.44,0.44-0.74,1.33
				c-0.44,0.89-3.98,8.56-8.12,17.12c-14.17,29.22-20.96,47.08-21.99,57.26c-0.3,2.36,0,1.77,1.03-2.8
				C27.77,170.68,29.1,165.81,29.98,163.01z M29.83,95.12c-0.15,0-0.74,0.44-1.48,1.18c-0.59,0.59-0.89,1.18-0.89,1.18
				c0.15,0,0.89-0.59,1.48-1.18C29.54,95.57,29.98,95.12,29.83,95.12z M30.87,176.44c-0.89,4.28-1.18,6.05-0.74,5.76
				c0.15-0.15,0.59-2.07,1.03-3.98C31.9,174.08,31.75,172.75,30.87,176.44z M38.98,84.94c-0.15,0-2.21,2.21-4.72,4.87
				c-2.51,2.66-4.43,4.72-4.28,4.72c0.15,0,2.36-2.07,4.87-4.72C37.36,87.15,39.28,84.94,38.98,84.94z M32.2,172.6
				c-0.15-0.44-0.3-0.3-0.3,0.3c-0.15,0.44,0,0.74,0.15,0.59C32.2,173.34,32.2,172.9,32.2,172.6z M32.64,170.68
				c-0.15-0.44-0.3-0.3-0.3,0.3c0,0.44,0,0.74,0.3,0.59C32.79,171.42,32.79,170.98,32.64,170.68z M33.23,157.7
				c0.3-0.3,0.44-0.89,0.44-1.18c0-0.3-0.15-0.15-0.44,0.3c-0.3,0.3-0.44,0.89-0.44,1.18C32.79,158.29,32.93,158.14,33.23,157.7z
				 M33.23,140.13c0,0.3,0.3,0,0.74-0.74c0.44-0.59,0.74-1.48,0.74-1.62c0-0.3-0.3,0-0.74,0.74
				C33.52,139.1,33.23,139.84,33.23,140.13z M35.3,136c0.15-0.15,3.54-7.08,7.67-15.64c4.13-8.41,8.41-17.56,9.59-20.22
				c2.21-5.31,4.87-12.4,4.57-12.69c0,0-1.92,4.13-4.13,9.45c-2.21,5.17-7.08,16.09-10.92,24.06C36.03,133.79,34.7,136.74,35.3,136z
				 M40.02,141.17c0-0.3-0.3-0.3-0.44,0.15c-0.3,0.44-0.59,1.03-0.59,1.18c0,0.3,0.3,0.15,0.59-0.15
				C39.72,141.91,40.02,141.32,40.02,141.17z M42.38,135.86c0-0.3-0.15-0.15-0.44,0.15c-0.3,0.44-0.44,1.03-0.44,1.18
				c0,0.3,0.15,0.15,0.44-0.15C42.23,136.59,42.38,136,42.38,135.86z M44.59,130.25c-0.44,0.74-0.74,1.48-0.74,1.62
				c0,0.3,0.3,0,0.74-0.59c0.3-0.74,0.74-1.48,0.74-1.77C45.33,129.21,44.89,129.66,44.59,130.25z M59.2,106.78
				c-1.03,2.66-3.25,7.67-4.87,11.07c-1.48,3.54-2.8,6.35-2.8,6.49c0.15,0.59,6.35-12.54,8.26-17.41c1.03-2.66,1.92-4.87,1.77-4.87
				C61.42,101.91,60.38,103.98,59.2,106.78z M55.96,162.27c-0.59,0.3-1.62,2.21-1.33,2.21c0.15,0,0.59-0.59,1.03-1.33
				C56.1,162.57,56.25,162.12,55.96,162.27z M68.8,140.87c-0.15,0-1.33,1.77-2.51,3.98c-2.07,3.54-7.38,12.4-9.3,15.79
				c-0.44,0.59-0.59,1.03-0.3,0.74s2.36-3.54,4.58-7.23C66.14,146.04,69.09,140.87,68.8,140.87z M61.86,150.02
				c0.15,0,0.59-0.59,1.03-1.48c0.44-0.74,0.59-1.48,0.44-1.48c0,0-0.44,0.74-0.89,1.48C62.01,149.43,61.71,150.02,61.86,150.02z
				 M63.93,146.33c0.3-0.15,1.18-1.48,1.92-2.8c0.74-1.33,1.03-2.21,0.74-1.92c-0.15,0.3-1.03,1.48-1.77,2.8
				C64.07,145.74,63.63,146.63,63.93,146.33z M67.17,140.87c0.15,0,0.59-0.74,1.03-1.48c0.44-0.74,0.59-1.48,0.44-1.48
				c-0.15,0-0.59,0.74-0.89,1.48C67.32,140.13,67.03,140.87,67.17,140.87z M69.83,136.3c-0.15-0.15-0.44,0.15-0.59,0.59
				c-0.3,0.59-0.3,0.74,0.3,0.3C69.83,136.74,69.98,136.45,69.83,136.3z M69.68,166.26c-0.15-0.3-0.15,0-0.15,0.59
				c0,0.74,0,1.03,0.15,0.59C69.83,167.14,69.83,166.55,69.68,166.26z M71.01,159.91c0.74-2.95,2.07-9,3.1-13.43
				c1.18-4.43,2.07-8.12,2.07-8.26c0-3.25-5.46,18.89-6.05,24.65C69.98,164.04,70.42,162.86,71.01,159.91z M80.46,130.84
				c-0.15-2.51-5.02,15.2-7.38,26.86c-0.74,3.39-1.48,7.97-1.48,10.33l-0.3,4.43l0.74-5.02c0.44-2.66,1.33-7.82,2.21-11.51
				c0.74-3.69,2.51-10.63,3.84-15.64C79.42,135.26,80.46,131.13,80.46,130.84z M79.86,161.98c-0.15-0.3-0.3-0.15-0.3,0.59
				c0,0.59,0.15,0.89,0.3,0.59C80.01,162.86,80.01,162.27,79.86,161.98z M80.46,160.21c0.3-0.74,0.44-1.77,0.44-2.21
				c0-0.74-0.15-0.74-0.44,0.15c-0.15,0.74-0.3,1.77-0.3,2.21C80.16,161.09,80.16,161.09,80.46,160.21z M81.05,155.78
				c0,0.74,0.15,0.89,0.3,0.59c0.15-0.3,0.15-0.89,0-1.18C81.19,154.89,81.05,155.19,81.05,155.78z M81.49,119.33
				c0,0.59,0.15,0.3,0.89-1.18c0.59-1.03,0.59-1.03-0.15-0.15C81.78,118.44,81.49,119.03,81.49,119.33z M83.7,146.48
				c0.15-0.15,0.15-0.59,0-0.89c-0.15-0.44-0.3-0.3-0.3,0.3C83.41,146.33,83.55,146.63,83.7,146.48z M84.14,144.56
				c0.15-0.15,0.15-0.59,0-0.89c-0.15-0.44-0.15-0.3-0.3,0.3C83.85,144.41,84,144.71,84.14,144.56z M86.36,112.54
				c0.3-0.3,0.44-0.74,0.3-0.89c-0.15-0.15-0.44,0.15-0.59,0.59C85.77,112.98,85.92,112.98,86.36,112.54z M87.24,132.46
				c0,0.74,4.72-12.69,5.02-14.46c0.15-0.74-0.89,1.92-2.36,6.2C88.42,128.48,87.24,132.17,87.24,132.46z M109.82,165.22
				c0.3-0.15,2.66-3.39,5.31-7.38c8.26-12.25,14.61-22.73,19.33-32.17c3.98-7.67,6.35-13.13,5.61-12.25
				c-0.15,0.15-2.07,3.98-4.43,8.56c-4.72,9.3-13.43,23.91-21.25,35.86C111.59,162.12,109.53,165.37,109.82,165.22z M113.96,154.89
				c0.15,0,0.44-0.44,0.74-1.03c0.3-0.59,0.44-0.89,0.3-0.89c-0.15,0-0.44,0.3-0.74,0.89C113.96,154.45,113.81,154.89,113.96,154.89
				z M115.14,152.68l1.03-1.18c0.44-0.74,1.92-2.95,3.25-5.17c1.18-2.07,3.25-5.31,4.57-7.23c1.33-1.92,2.36-3.69,2.36-3.84
				c0,0,0.74-1.62,1.77-3.25c3.39-5.46,8.56-15.79,11.36-22.43c2.8-7.08,6.64-18.3,6.49-18.89c-0.15-0.3-0.89,1.62-1.77,4.28
				c-4.87,13.72-12.1,29.07-21.69,45.16c-3.1,5.02-5.9,9.89-6.49,10.77L115.14,152.68z M129.01,126.26c1.62-3.1,3.98-7.53,5.02-9.89
				c2.21-4.58,7.23-17.41,7.23-18.15c0-0.3-1.62,3.25-3.54,7.97c-1.92,4.72-5.76,12.84-8.41,18.15
				C123.99,134.53,123.84,135.56,129.01,126.26z M128.27,139.1c-0.3,0.3-0.59,0.59-0.59,0.89c0,0.59,0.44,0.44,0.74-0.3
				C128.57,139.25,128.42,138.95,128.27,139.1z M129.89,136.45c-0.15,0-0.44,0.44-0.74,1.03c-0.3,0.59-0.44,1.03-0.3,1.03
				c0.15,0,0.59-0.44,0.74-1.03C129.89,136.89,130.04,136.45,129.89,136.45z M131.37,134.08c-0.15,0-0.44,0.44-0.74,1.03
				c-0.3,0.44-0.44,0.89-0.3,0.89c0.15,0,0.44-0.44,0.74-0.89C131.37,134.53,131.52,134.08,131.37,134.08z M145.39,112.98
				c0,0-0.89,1.62-1.77,3.69c-0.89,2.07-3.25,7.23-5.31,11.36c-2.21,4.28-3.54,7.38-3.1,6.79c0.44-0.59,2.51-4.43,4.58-8.71
				C143.32,118.88,145.69,113.42,145.39,112.98z M146.13,110.91c-0.3,0.44-0.59,1.03-0.59,1.33c0,0.15,0.3,0.15,0.59-0.3
				c0.15-0.44,0.44-0.89,0.44-1.18C146.57,110.47,146.28,110.62,146.13,110.91z"/>
			<path class="st4" d="M222.28,152.24c-12.69,19.78-26.56,34.83-36.9,39.85c-5.61,2.66-10.48,3.25-15.35,1.77
				c-1.33-0.3-3.25-1.33-4.13-2.07c-1.03-0.74-2.66-1.77-3.84-2.36c-2.36-1.18-5.76-4.58-8.12-7.97
				c-6.35-9.45-3.98-22.43,6.79-38.81c6.05-9.15,15.05-17.12,22.28-19.92c5.9-2.21,11.95-1.62,14.17,1.33
				c0.59,0.59,1.92,1.77,2.95,2.66c2.95,2.07,4.13,4.87,3.84,9.3c-0.44,4.72-2.21,10.18-4.87,14.17
				c-4.87,7.23-13.43,15.05-19.63,17.86c-2.8,1.33-7.82,1.77-10.04,0.89c-0.89-0.3-1.18-0.15-1.77,1.92
				c-2.07,6.49-2.21,9.89-0.59,13.43c1.03,1.92,1.77,2.21,5.31,2.21c5.31,0,11.81-2.66,18.45-7.67c6.35-4.72,18-17.41,25.68-27.6
				c3.54-4.72,6.35-7.53,6.79-6.35c0,0.3,0.44,0.59,0.89,0.59C225.38,145.45,224.5,148.69,222.28,152.24z M158.68,159.91
				c-1.03,1.62-3.54,10.92-2.8,10.18c0.15-0.15,0.89-2.21,1.62-4.58C159.12,159.76,159.27,159.03,158.68,159.91z M158.82,168.32
				c0.74-2.66,1.33-5.46,1.62-6.2c0.44-2.21-0.59-0.89-1.48,1.92c-0.44,1.33-1.03,3.98-1.03,5.76l-0.3,3.39L158.82,168.32z
				 M162.51,163.75c0-0.44-0.15-0.44-0.44-0.15c-0.44,0.44-2.07,6.35-1.92,7.53C160.15,171.86,162.51,164.78,162.51,163.75z
				 M165.91,168.91l-0.74,1.48c-0.3,0.74-0.74,2.21-0.89,3.25l-0.3,1.92l0.59-1.92c0.44-1.03,0.74-2.51,1.03-3.39L165.91,168.91z
				 M170.78,163.45c0,0.74,2.36,0.3,5.02-1.03c9.74-4.72,18.15-15.35,20.22-25.97c1.03-4.72,0.89-5.31-1.18-4.28
				c-4.13,2.07-10.33,8.85-16.53,18C175.8,153.86,170.78,162.71,170.78,163.45z M175.5,141.46c1.62-2.07,2.8-3.84,2.8-3.84
				c-0.44,0-6.2,6.94-6.2,7.53C172.11,145.74,171.96,145.89,175.5,141.46z M194.1,149.73c-0.89,1.18-1.03,1.48-0.3,0.89
				c0.44-0.44,1.03-0.74,1.18-0.59c0.3,0.3,1.92-1.77,3.25-4.43c1.18-2.36,1.03-2.8-0.3-0.74c-0.3,0.74-0.59,1.03-0.44,0.59
				c0.74-2.8,0.59-2.8-0.74-0.3C196.01,146.78,194.69,148.84,194.1,149.73z M194.83,149.58c0-0.59,2.07-3.69,2.36-3.54
				c0.15,0.15-0.3,1.03-0.89,2.07C195.42,149.58,194.83,150.17,194.83,149.58z M198.82,141.61c0.15-0.44,0.44-1.03,0.44-1.48
				c-0.15-0.44-0.3-0.44-0.44,0.15C198.23,141.61,198.23,142.5,198.82,141.61z M218.45,154.01c-0.3,0.3-0.89,0.44-0.89,0.3
				c-0.15-0.15-0.59,0.15-1.03,0.59c-0.59,0.89-0.59,0.89,0.15,0.3c0.44-0.3,0.89-0.44,1.03-0.3c0.15,0.15,0.59-0.15,0.89-0.59
				C219.18,153.42,219.18,153.42,218.45,154.01z M220.51,149.88c0.59-0.74,0.59-0.74-0.15-0.15c-0.44,0.3-0.89,0.74-0.89,0.89
				C219.48,150.91,219.92,150.76,220.51,149.88z M220.81,150.61c-0.44,0.44-0.74,0.74-0.74,0.89c0,0.44,0.3,0.15,1.03-0.59
				C221.69,150.02,221.55,150.02,220.81,150.61z M222.14,147.07c-0.3,0.3-0.15,0.3,0.15,0.15c0.3-0.3,0.59-0.15,0.59,0.15
				c0,0.74,0.3,0.59,0.74-0.15C223.76,146.48,222.73,146.33,222.14,147.07z"/>
			<g>
				<g>
					<rect x="451.56" y="223.25" class="st4" width="46.78" height="2.23"/>
				</g>
				<g>
					<rect x="5.62" y="223.25" class="st4" width="198.84" height="2.23"/>
				</g>
			</g>
		</g>
	</g>
</g>
</svg>
